PathFileType	4	(X/Y/Z)	./motion_analysis/DM_ngait_tm_slow1_new.trc
DataRate	CameraRate	NumFrames	NumMarkers	Units	OrigDataRate	OrigDataStartFrame	OrigNumFrames
120	120	4	68	mm	120	792	1585
Frame#	Time	Sternum			Neck			R_Shoulder			L_Shoulder			Xiphoid			Thoracic			R_Asis			L_Asis			R_Psis			L_Psis			Lumbar			R_Elbow			R_ElbowMedial			R_ShoulderAnterior			R_ShoulderPosterior			R_Wrist			R_Radius			R_Ulna			L_Elbow			L_ElbowMedial			L_ShoulderAnterior			L_ShoulderPosterior			L_Wrist			L_Ulna			L_Radius			L_Thigh_Superior			L_Thigh_Inferior			L_Thigh_Lateral			L_Knee_Lateral			L_Knee_Medial			L_Patella			L_Shank_Superior			L_Shank_Inferior			L_Shank_Lateral			L_Ankle_Lateral			L_Ankle_Medial			R_Thigh_Superior			R_Thigh_Inferior			R_Thigh_Lateral			R_Knee_Lateral			R_Knee_Medial			R_Patella			R_Shank_Superior			R_Shank_Inferior			R_Shank_Lateral			R_Ankle_Lateral			RankleMedial			R_Heel			R_Toe			R_Midfoot_Medial			R_Midfoot_Lateral			R_Hindfoot			R_Midfoot_Superior			R_ToeMedial			R_ToeLateral			L_Heel			L_Toe			L_Midfoot_Medial			L_Midfoot_Lateral			L_Hindfoot			L_Midfoot_Superior			L_ToeMedial			L_ToeLateral			Oglobal			Sacral			Xglobal			Yglobal			Zglobal			
		X1	Y1	Z1	X2	Y2	Z2	X3	Y3	Z3	X4	Y4	Z4	X5	Y5	Z5	X6	Y6	Z6	X7	Y7	Z7	X8	Y8	Z8	X9	Y9	Z9	X10	Y10	Z10	X11	Y11	Z11	X12	Y12	Z12	X13	Y13	Z13	X14	Y14	Z14	X15	Y15	Z15	X16	Y16	Z16	X17	Y17	Z17	X18	Y18	Z18	X19	Y19	Z19	X20	Y20	Z20	X21	Y21	Z21	X22	Y22	Z22	X23	Y23	Z23	X24	Y24	Z24	X25	Y25	Z25	X26	Y26	Z26	X27	Y27	Z27	X28	Y28	Z28	X29	Y29	Z29	X30	Y30	Z30	X31	Y31	Z31	X32	Y32	Z32	X33	Y33	Z33	X34	Y34	Z34	X35	Y35	Z35	X36	Y36	Z36	X37	Y37	Z37	X38	Y38	Z38	X39	Y39	Z39	X40	Y40	Z40	X41	Y41	Z41	X42	Y42	Z42	X43	Y43	Z43	X44	Y44	Z44	X45	Y45	Z45	X46	Y46	Z46	X47	Y47	Z47	X48	Y48	Z48	X49	Y49	Z49	X50	Y50	Z50	X51	Y51	Z51	X52	Y52	Z52	X53	Y53	Z53	X54	Y54	Z54	X55	Y55	Z55	X56	Y56	Z56	X57	Y57	Z57	X58	Y58	Z58	X59	Y59	Z59	X60	Y60	Z60	X61	Y61	Z61	X62	Y62	Z62	X63	Y63	Z63	X64	Y64	Z64	X65	Y65	Z65	X66	Y66	Z66	X67	Y67	Z67	X68	Y68	Z68	

793	6.608333	-775.23	1392.86	427.452	-625.925	1482.3	390.558	-742.337	1405.26	245.686	-657.491	1449.41	581.881	-785.064	1223.42	437.251	-526.926	1298.5	396.473	-715.605	994.761	304.201	-681.401	1005.48	580.966	-503.52	1052.39	388.267	-496.599	1056.5	465.993	-505.593	1103.8	420.636	-764.593	1088.4	159.545	-0	0	0	-0	0	0	-0	0	0	-917.6799999999999	871.511	239.946	-901.599	884.02	279.889	-879.018	855.681	216.763	-565.478	1121.83	673.636	-0	0	0	-0	0	0	-0	0	0	-609.124	856.355	685.854	-562.019	866.9059999999999	685.567	-622.043	871.604	642.487	-635.556	841.723	622.601	-711.174	626.527	592.671	-735.694	719.22	562.926	-0	0	0	-0	0	0	-779.6950000000001	552.947	528.698	-710.898	481.606	591.246	-742.481	210.89	598.6609999999999	-772.8579999999999	343.92	530.803	-0	0	0	-0	0	0	-608.015	816.779	275.768	-604.711	601.873	320.952	-691.053	656.859	369.746	-0	0	0	-0	0	0	-667.59	510.512	398.749	-0	0	0	-504.646	206.49	330.576	-585.129	321.792	399.965	-0	0	0	-0	0	0	-400.95	77.8018	385.164	-700.741	65.64830000000001	373.009	-624.163	43.1073	427.451	-608.992	43.8994	311.168	-498.927	43.3176	327.6	-563.129	132.383	377.298	-668.122	54.3439	418.381	-658.724	54.1116	325.686	-704.431	78.5612	542.079	-994.848	128.318	582.1369999999999	-929.215	94.9397	522.801	-903.221	87.0754	634.015	-799.999	61.2653	610.679	-851.677	165.614	570.307	-967.179	104.438	534.26	-955.956	101.527	630.177	-0	0	0	-500.059	1054.45	427.13	-200	0	0	-0	0	200	-0	200	0	
794	6.616667	-775.564	1392.26	428.318	-626.268	1481.91	391.707	-742.347	1404.65	246.651	-658.136	1448.87	582.934	-785.128	1222.83	437.929	-527.101	1298.27	397.837	-715.215	994.447	304.648	-681.615	1004.75	581.601	-503.372	1052.13	389.284	-496.633	1056.17	467.097	-505.562	1103.51	421.769	-763.852	1087.58	161.165	-0	0	0	-0	0	0	-0	0	0	-915.731	870.004	241.906	-899.5700000000001	882.336	281.797	-877.096	854.272	218.556	-565.186	1121.54	674.756	-0	0	0	-0	0	0	-0	0	0	-608.46	856.103	687.537	-561.373	866.692	687.136	-621.4	871.107	644.063	-634.49	840.861	623.191	-709.533	625.582	593.302	-733.822	717.635	564.611	-0	0	0	-0	0	0	-778.667	553.925	527.481	-711.081	481.479	591.011	-748.6420000000001	211.682	599.409	-776.119	344.932	530.9690000000001	-0	0	0	-0	0	0	-606.942	816.669	276.281	-602.518	601.7380000000001	321.184	-689.2380000000001	656.235	369.978	-0	0	0	-0	0	0	-664.958	509.88	398.901	-0	0	0	-500.827	206.698	330.574	-581.9160000000001	321.658	400.259	-0	0	0	-0	0	0	-396.759	77.9821	385.108	-696.527	65.5583	373.026	-619.874	42.9348	427.619	-604.833	43.8231	311.32	-494.653	43.2969	327.586	-559.155	132.375	377.449	-663.929	54.2757	418.244	-654.4299999999999	54.2102	325.337	-713.638	77.9016	542.457	-1002.8	134.359	583.0359999999999	-938.057	99.3378	523.899	-911.878	91.01130000000001	635.0359999999999	-809.4400000000001	62.8668	611.437	-858.934	168.387	571.095	-975.582	109.948	534.974	-964.515	106.836	631.187	-0	0	0	-500.002	1054.15	428.19	-200	0	0	-0	0	200	-0	200	0	
795	6.625	-775.866	1391.66	429.323	-626.65	1481.53	392.974	-742.419	1404.12	247.759	-658.74	1448.24	584.22	-785.193	1222.2	438.597	-527.256	1298	399.135	-714.946	994.1799999999999	305.283	-681.8680000000001	1004.07	582.271	-503.292	1051.9	390.364	-496.7	1055.85	468.233	-505.606	1103.24	422.942	-763.014	1086.75	162.826	-0	0	0	-0	0	0	-0	0	0	-913.601	868.427	243.702	-897.525	880.678	283.638	-874.889	852.782	220.308	-565.104	1121.18	675.963	-0	0	0	-0	0	0	-0	0	0	-607.801	855.687	689.2809999999999	-560.796	866.42	688.837	-620.827	870.636	645.731	-633.244	839.651	623.1660000000001	-708.433	624.908	593.349	-732.355	716.208	566.04	-0	0	0	-0	0	0	-777.721	554.723	526.396	-711.508	481.334	590.9	-754.227	212.154	599.51	-779.232	345.896	531.0940000000001	-0	0	0	-0	0	0	-605.991	816.5	276.944	-600.4109999999999	601.6609999999999	321.523	-687.131	655.73	369.985	-0	0	0	-0	0	0	-662.524	509.355	399.03	-0	0	0	-496.808	206.925	331.285	-578.634	321.61	400.574	-0	0	0	-0	0	0	-392.576	78.1763	385.086	-692.2619999999999	65.47190000000001	373.058	-615.625	42.9164	427.77	-600.678	43.8412	311.459	-490.41	43.3008	327.572	-555.162	132.467	377.563	-659.6420000000001	54.2831	418.348	-650.24	54.1872	325.261	-722.247	77.3079	542.577	-1009.97	140.07	583.981	-946.188	103.667	524.591	-919.901	94.8835	635.667	-818.162	64.49299999999999	611.802	-865.3869999999999	170.974	571.49	-983.283	115.301	535.693	-972.279	111.804	631.832	-0	0	0	-499.996	1053.87	429.299	-200	0	0	-0	0	200	-0	200	0	
796	6.633333	-776.254	1391.07	430.332	-627.067	1481.17	394.379	-742.463	1403.6	248.926	-659.49	1447.66	585.566	-785.429	1221.58	439.43	-527.423	1297.7	400.581	-714.649	993.827	305.858	-682.253	1003.37	582.914	-503.262	1051.66	391.523	-496.834	1055.5	469.448	-505.711	1102.94	424.16	-762.0359999999999	1085.95	164.438	-0	0	0	-0	0	0	-0	0	0	-911.283	866.8200000000001	245.386	-895.279	878.967	285.268	-872.475	851.3099999999999	221.933	-565.131	1120.81	677.2910000000001	-0	0	0	-0	0	0	-0	0	0	-607.2569999999999	855.239	691.085	-560.269	866.148	690.5940000000001	-620.226	870.0309999999999	647.462	-632.572	838.889	623.9	-708.0119999999999	624.485	592.953	-731.38	715.098	567.215	-0	0	0	-0	0	0	-777.066	555.337	525.5890000000001	-712.046	481.093	590.979	-759.414	212.555	599.409	-782.053	346.723	531.173	-0	0	0	-0	0	0	-605.047	816.452	277.429	-598.21	601.534	321.887	-685.1	655.288	369.999	-0	0	0	-0	0	0	-659.7859999999999	508.736	399.196	-0	0	0	-492.937	207.075	331.38	-575.0890000000001	321.342	400.255	-0	0	0	-0	0	0	-388.405	78.3777	385.022	-688.114	65.4081	372.986	-611.5309999999999	43.2633	427.421	-596.35	43.6461	311.137	-486.239	43.309	327.514	-550.4829999999999	132.423	376.941	-655.466	54.2149	418.31	-645.932	53.9795	325.667	-730.1950000000001	76.6827	542.3579999999999	-1016.41	145.372	584.548	-953.6	107.609	524.987	-927.17	98.4526	636	-826.1420000000001	65.8931	611.912	-871.313	173.324	571.548	-990.268	120.181	536.177	-979.225	116.475	632.431	-0	0	0	-500.048	1053.58	430.486	-200	0	0	-0	0	200	-0	200	0	
